<svg xmlns="http://www.w3.org/2000/svg" style="display: none;">
  
  <!-- Arrow Up Icon -->
  <symbol id="arrow-up" viewBox="0 0 24 24">
    <path d="M12 19V5M12 5l-7 7M12 5l7 7" stroke="currentColor" stroke-width="2" stroke-linecap="round" stroke-linejoin="round" fill="none"/>
  </symbol>
  
  <!-- Email Icon -->
  <symbol id="email" viewBox="0 0 24 24">
    <path d="M3 8l7.89 5.26a2 2 0 002.22 0L21 8M5 19h14a2 2 0 002-2V7a2 2 0 00-2-2H5a2 2 0 00-2 2v10a2 2 0 002 2z" stroke="currentColor" stroke-width="2" fill="none"/>
  </symbol>
  
  <!-- Telegram Icon -->
  <symbol id="telegram" viewBox="0 0 24 24">
    <path d="M9.78 18.65l.28-4.23 7.68-6.92c.34-.31-.07-.46-.52-.19L7.74 13.3 3.64 12c-.88-.25-.89-.86.2-1.3l15.97-6.16c.73-.33 1.43.18 1.15 1.3l-2.72 12.81c-.19.91-.74 1.13-1.5.71L12.6 16.3l-1.99 1.93c-.23.23-.42.42-.83.42z" fill="currentColor"/>
  </symbol>
  
  <!-- MAX Messenger Icon -->
  <symbol id="max" viewBox="0 0 24 24">
    <circle cx="12" cy="12" r="10" stroke="currentColor" stroke-width="2" fill="none"/>
    <path d="M8 10l4 4 4-4M8 14l4-4 4 4" stroke="currentColor" stroke-width="2" stroke-linecap="round" fill="none"/>
  </symbol>
  
  <!-- WhatsApp Icon -->
  <symbol id="whatsapp" viewBox="0 0 24 24">
    <path d="M17.472 14.382c-.297-.149-1.758-.867-2.03-.967-.273-.099-.471-.148-.67.15-.197.297-.767.966-.94 1.164-.173.199-.347.223-.644.075-.297-.15-1.255-.463-2.39-1.475-.883-.788-1.48-1.761-1.653-2.059-.173-.297-.018-.458.13-.606.134-.133.298-.347.446-.52.149-.174.198-.298.298-.497.099-.198.05-.371-.025-.52-.075-.149-.669-1.612-.916-2.207-.242-.579-.487-.5-.669-.51-.173-.008-.371-.01-.57-.01-.198 0-.52.074-.792.372-.272.297-1.04 1.016-1.04 2.479 0 1.462 1.065 2.875 1.213 3.074.149.198 2.096 3.2 5.077 4.487.709.306 1.262.489 1.694.625.712.227 1.36.195 1.871.118.571-.085 1.758-.719 2.006-1.413.248-.694.248-1.289.173-1.413-.074-.124-.272-.198-.57-.347m-5.421 7.403h-.004a9.87 9.87 0 01-5.031-1.378l-.361-.214-3.741.982.998-3.648-.235-.374a9.86 9.86 0 01-1.51-5.26c.001-5.45 4.436-9.884 9.888-9.884 2.64 0 5.122 1.03 6.988 2.898a9.825 9.825 0 012.893 6.994c-.003 5.45-4.437 9.884-9.885 9.884m8.413-18.297A11.815 11.815 0 0012.05 0C5.495 0 .16 5.335.157 11.892c0 2.096.547 4.142 1.588 5.945L.057 24l6.305-1.654a11.882 11.882 0 005.683 1.448h.005c6.554 0 11.89-5.335 11.893-11.893a11.821 11.821 0 00-3.48-8.413Z" fill="currentColor"/>
  </symbol>
  
  <!-- Phone Icon -->
  <symbol id="phone" viewBox="0 0 24 24">
    <path d="M3 5.5C3 4.119 4.119 3 5.5 3h1.879c.604 0 1.163.322 1.463.843l1.265 2.195a1.5 1.5 0 01-.3 1.827l-1.248.936a10.717 10.717 0 005.082 5.082l.936-1.248a1.5 1.5 0 011.827-.3l2.195 1.265c.521.3.843.859.843 1.463V18.5c0 1.381-1.119 2.5-2.5 2.5h-.5C8.552 21 2 14.448 2 6.5v-.5C2 5.448 2.448 5 3 5v.5z" stroke="currentColor" stroke-width="2" fill="none"/>
  </symbol>
  
  <!-- Check Circle Icon -->
  <symbol id="check-circle" viewBox="0 0 24 24">
    <path stroke-linecap="round" stroke-linejoin="round" stroke-width="2" d="M9 12l2 2 4-4m6 2a9 9 0 11-18 0 9 9 0 0118 0z" stroke="currentColor" fill="none"/>
  </symbol>
  
  <!-- Diamond Icon -->
  <symbol id="diamond" viewBox="0 0 48 48">
    <path d="M24 8L8 18V30L24 40L40 30V18L24 8Z" stroke="currentColor" stroke-width="2" stroke-linejoin="round" fill="none"/>
    <path d="M8 18L24 28L40 18" stroke="currentColor" stroke-width="2" stroke-linejoin="round" fill="none"/>
  </symbol>
  
  <!-- Star Icon -->
  <symbol id="star" viewBox="0 0 24 24">
    <path d="M12 2L15.09 8.26L22 9.27L17 14.14L18.18 21.02L12 17.77L5.82 21.02L7 14.14L2 9.27L8.91 8.26L12 2Z" stroke="currentColor" stroke-width="1.5" fill="currentColor"/>
  </symbol>
  
  <!-- Clock Icon -->
  <symbol id="clock" viewBox="0 0 48 48">
    <circle cx="24" cy="24" r="20" stroke="currentColor" stroke-width="2" fill="none"/>
    <path d="M24 14V24L30 30" stroke="currentColor" stroke-width="2" stroke-linecap="round" fill="none"/>
  </symbol>

</svg>